<svg width="120" height="120" viewBox="0 0 120 120" fill="none" xmlns="http://www.w3.org/2000/svg">
<rect width="120" height="120" rx="20" fill="white"/>
<path d="M12.4736 59.9348C8.69129 53.2684 13.5066 45 21.1712 45H62.1816C65.6868 45 68.9361 46.8353 70.7458 49.8372L94.8593 89.8372C98.8771 96.5021 94.0774 105 86.2951 105H43.8663C40.2667 105 36.945 103.065 35.1687 99.9348L12.4736 59.9348Z" fill="#2266E1" fill-opacity="0.8"/>
<path d="M24.4736 29.9348C20.6913 23.2684 25.5066 15 33.1712 15H74.1816C77.6868 15 80.9362 16.8353 82.7458 19.8372L106.859 59.8372C110.877 66.5021 106.077 75 98.2951 75H55.8663C52.2667 75 48.945 73.0655 47.1687 69.9348L24.4736 29.9348Z" fill="#7CF5A6" fill-opacity="0.8"/>
</svg>